<svg width="512" height="512" viewBox="0 0 512 512" xmlns="http://www.w3.org/2000/svg" xmlns:xlink="http://www.w3.org/1999/xlink"><title>Ace Logo Circle</title><defs><linearGradient x1="62.443%" y1="42.833%" x2="83.732%" y2="56.698%" id="b"><stop stop-color="#4A90E2" stop-opacity="0" offset="0%"/><stop stop-opacity=".3" offset="42.365%"/><stop stop-opacity=".5" offset="75.333%"/><stop stop-opacity="0" offset="100%"/></linearGradient><linearGradient x1="50%" y1="61.225%" x2="92.822%" y2="87.322%" id="c"><stop stop-color="#4A90E2" stop-opacity="0" offset="0%"/><stop stop-color="#030303" stop-opacity=".3" offset="53.278%"/><stop stop-opacity=".3" offset="68.561%"/><stop stop-color="#4A90E2" stop-opacity="0" offset="100%"/></linearGradient><path id="a" d="M71.12 372.46L214.975 85.14c1.864-3.722 6.757-6.74 10.905-6.74h60.24c4.16 0 9.046 3.026 10.906 6.74l143.853 287.32c1.864 3.722-.006 6.74-4.168 6.74h-97.867c-4.165 0-9.047-3.004-10.912-6.73L259.37 235.53c-1.861-3.717-4.874-3.726-6.74 0l-68.561 136.94c-1.861 3.717-6.75 6.73-10.912 6.73H75.289c-4.166 0-6.028-3.026-4.168-6.74z"/><linearGradient x1="4.547%" y1="57.143%" x2="20.427%" y2="67.81%" id="e"><stop stop-opacity=".3" offset="0%"/><stop stop-color="#FFF" stop-opacity="0" offset="100%"/></linearGradient><path id="d" d="M264.172 379.2h58.43c4.15 0 9.021-3.019 10.868-6.721L439.284 160.32c1.851-3.712-.01-6.721-4.162-6.721h-58.749c-4.15 0-9.037 3.004-10.914 6.705L293.134 302.97l-33.765-67.44c-1.861-3.717-4.874-3.726-6.74 0l-34.648 69.204 35.209 67.793c.957 1.842 2.66 3.51 4.646 4.718 1.985 1.208 4.252 1.955 6.336 1.955z"/></defs><g fill="none" fill-rule="evenodd"><circle fill="#4B4B4B" cx="256" cy="256" r="256"/><use fill="#22C7F0" xlink:href="#a"/><use fill="url(#b)" xlink:href="#a"/><use fill="url(#c)" xlink:href="#a"/><use fill="#77E300" xlink:href="#d"/><use fill="url(#e)" xlink:href="#d"/></g></svg>