<svg xmlns="http://www.w3.org/2000/svg" xmlns:xlink="http://www.w3.org/1999/xlink" width="150" height="128"><defs><path id="a" d="M42.99 128c2.215 0 4.726-1.636 5.611-3.66l24.892-56.897c.884-2.021 2.312-2.024 3.191 0l24.726 56.897c.878 2.021 3.384 3.66 5.6 3.66h39.98c2.215 0 3.292-1.642 2.41-3.659L96.6 3.66C95.718 1.638 93.205 0 91 0H59c-2.21 0-4.718 1.642-5.6 3.659L.6 124.34C-.282 126.362.795 128 3.01 128h39.98z"/><path id="d" d="M121.158 59.79l7.154 16.35-27.05 47.86L90 98c.552 1.105 1.803.93 2.794-.392l28.364-37.819z"/><filter id="c" width="217.5%" height="170.1%" x="-58.7%" y="-35%" filterUnits="objectBoundingBox"><feMorphology in="SourceAlpha" operator="dilate" radius="2.5" result="shadowSpreadOuter1"/><feOffset in="shadowSpreadOuter1" result="shadowOffsetOuter1"/><feGaussianBlur in="shadowOffsetOuter1" result="shadowBlurOuter1" stdDeviation="5"/><feColorMatrix in="shadowBlurOuter1" values="0 0 0 0 0 0 0 0 0 0 0 0 0 0 0 0 0 0 0.2 0"/></filter><path id="e" d="M.75 27L11.493 2.443c.884-2.021 2.312-2.024 3.191 0l12.597 28.91c-6.11-10.27-10.733-17.734-13.266-17.886-.612-.037-2.355 3.595-2.522 3.976l-7.052 16.12L.75 27z"/><path id="h" d="M-19.01 65c2.215 0 4.726-1.636 5.611-3.66L11.493 4.443c.884-2.021 2.312-2.024 3.191 0l13.4 30.836L39.41 61.34c.878 2.021 3.384 3.66 5.6 3.66h39.98c2.215 0 3.292-1.642 2.41-3.659L58.03-5.789 34.6-59.342C33.718-61.362 31.205-63 29-63H-3c-2.21 0-4.718 1.642-5.6 3.659L-61.4 61.34c-.883 2.021.194 3.659 2.41 3.659h39.98z"/><filter id="g" width="116.1%" height="118.8%" x="-8%" y="-9.4%" filterUnits="objectBoundingBox"><feOffset in="SourceAlpha" result="shadowOffsetOuter1"/><feGaussianBlur in="shadowOffsetOuter1" result="shadowBlurOuter1" stdDeviation="4"/><feColorMatrix in="shadowBlurOuter1" values="0 0 0 0 0 0 0 0 0 0 0 0 0 0 0 0 0 0 0.3 0"/></filter></defs><g fill="none" fill-rule="evenodd"><path fill="#22C7F0" d="M42.99 128c2.215 0 4.726-1.636 5.611-3.66l24.892-56.897c.884-2.021 2.312-2.024 3.191 0l24.726 56.897c.878 2.021 3.384 3.66 5.6 3.66h39.98c2.215 0 3.292-1.642 2.41-3.659L96.6 3.66C95.718 1.638 93.205 0 91 0H59c-2.21 0-4.718 1.642-5.6 3.659L.6 124.34C-.282 126.362.795 128 3.01 128h39.98z"/><g><mask id="b" fill="#fff"><use xlink:href="#a"/></mask><g fill="#000" mask="url(#b)"><use filter="url(#c)" xlink:href="#d"/></g></g><path fill="#77E300" d="M149.52 38.618c.823-1.456.138-2.618-1.517-2.618h-6.006c-1.655 0-3.8 1.071-4.791 2.392L92.794 97.608c-.991 1.321-2.242 1.497-2.794.392-.143-.32-13.316-30.557-13.316-30.557-.88-2.024-2.307-2.021-3.191 0L62.75 92l18.783 33.392c.811 1.443 2.814 2.608 4.476 2.608h9.982c1.672 0 3.668-1.166 4.481-2.605l.56-.989 48.488-85.788z"/><g transform="translate(62 65)"><mask id="f" fill="#fff"><use xlink:href="#e"/></mask><g fill="#000" mask="url(#f)"><use filter="url(#g)" xlink:href="#h"/></g></g></g></svg>